<!DOCTYPE svg PUBLIC "-//W3C//DTD SVG 1.1//EN" "http://www.w3.org/Graphics/SVG/1.1/DTD/svg11.dtd">
<!-- Uploaded to: SVG Repo, www.svgrepo.com, Transformed by: SVG Repo Mixer Tools -->
<svg fill="#000000" width="800px" height="800px" viewBox="0 0 24 24" id="folder-search" data-name="Line Color" xmlns="http://www.w3.org/2000/svg" class="icon line-color">
<g id="SVGRepo_bgCarrier" stroke-width="0"/>
<g id="SVGRepo_tracerCarrier" stroke-linecap="round" stroke-linejoin="round"/>
<g id="SVGRepo_iconCarrier">
<path id="secondary" d="M15,19a4,4,0,1,0-4-4A4,4,0,0,0,15,19Zm6,2-3.17-3.17" style="fill: none; stroke: #FFB300; stroke-linecap: round; stroke-linejoin: round; stroke-width: 2;"/>
<path id="primary" d="M7,18H4a1,1,0,0,1-1-1V4A1,1,0,0,1,4,3H9a1,1,0,0,1,.71.29l2.41,2.42a1,1,0,0,0,.71.29H20a1,1,0,0,1,1,1v3" style="fill: none; stroke: #FFB300; stroke-linecap: round; stroke-linejoin: round; stroke-width: 2;"/>
</g>
</svg>